PathFileType	4	(X/Y/Z)	C:/Users/beibeiliu/ov580/test_trc\sequence.35_training_dense_left.trc
DataRate	CameraRate	NumFrames	NumMarkers	Units	OrigDataRate	OrigDataStartFrame	OrigNumFrames
120	120	12	19	mm	120	1	57
Frame#	Time	ThumbCMC			ThumbMCP			ThumbIP			ThumbTip			IndexMCP			IndexPIP			IndexTip			MiddleMCP			MiddlePIP			MiddleTip			RingMCP			RingPIP			RingTip			PinkyMCP			PinkyPIP			PinkyTip			BackHand1			BackHand2			BackHand3	
		X0	Y0	Z0	X1	Y1	Z1	X2	Y2	Z2	X3	Y3	Z3	X4	Y4	Z4	X5	Y5	Z5	X6	Y6	Z6	X7	Y7	Z7	X8	Y8	Z8	X9	Y9	Z9	X10	Y10	Z10	X11	Y11	Z11	X12	Y12	Z12	X13	Y13	Z13	X14	Y14	Z14	X15	Y15	Z15	X16	Y16	Z16	X17	Y17	Z17	X18	Y18	Z18	
0	0	-205.147	-18.1064	106.296	-196.009	-0.218232	85.2423	-195.005	11.2921	59.31	-186.293	16.5392	34.1123	-176.242	-43.4223	39.4711	-161.586	-34.9931	16.3486	-136.191	-17.0553	2.17285	-156.342	-51.3757	38.6745	-133.11	-34.0828	23.5141	-117.775	-5.30686	38.7811	-141.825	-60.3859	46.5082	-121.967	-45.2514	33.5581	-110.919	-15.4199	44.4037	-127.317	-70.4632	66.259	-110.299	-58.0673	51.6033	-102.955	-27.4051	47.0729	-169.277	-74.6064	92.1255	-181.078	-74.1883	125.288	-198.441	-56.892	98.4256	
1	0.00833333	-210.684	-26.9492	107.354	-204.878	-6.43036	85.9004	-196.805	1.12999	62.5111	-182.618	5.29542	37.9853	-186.04	-51.322	40.0119	-167.835	-37.0517	16.6953	-149.35	-9.54153	22.6968	-167.637	-56.3193	35.8624	-149.36	-38.7162	22.0264	-137.056	-9.29046	44.4494	-149.25	-67.9499	48.0102	-135.055	-46.2752	32.1153	-128.602	-13.3689	49.7947	-138.455	-71.7432	67.0291	-119.04	-53.2565	46.6515	-113.755	-26.058	46.561	-173.097	-80.8885	97.0619	-184.868	-81.4026	123.528	-204.242	-63.9574	99.1019	
2	0.0166667	-215.967	-27.9835	111.806	-209.979	-7.39131	91.5798	-201.336	3.89977	61.5869	-185.572	3.13137	46.3176	-194.808	-46.1668	36.5454	-176.136	-31.8433	21.7469	-166.69	-3.44431	34.9124	-174.324	-56.7796	39.8028	-157.349	-33.3332	25.0583	-153.192	-7.95364	50.8085	-160.481	-63.0549	48.606	-142.249	-36.847	34.8504	-141.216	-12.8116	57.7474	-142.626	-69.7409	64.6583	-126.978	-47.8677	48.2861	-129.043	-19.3543	55.0845	-176.423	-81.4621	96.8679	-187.201	-80.3655	124.098	-207.864	-65.9135	103.891	
3	0.025	-221.284	-23.5376	108.043	-212.293	-4.51711	90.7828	-205.267	7.02025	66.012	-189.963	8.70809	48.6799	-196.449	-41.0221	38.7583	-181.584	-17.9568	23.8073	-170.311	-0.921283	46.2004	-180.066	-49.5665	41.2415	-160.362	-23.4481	29.9603	-159.677	-6.2378	61.2737	-162.934	-55.934	46.4039	-145.886	-29.8295	38.9031	-149.701	-9.99033	61.5226	-150.054	-61.4739	65.4714	-135.753	-38.7674	49.0226	-138.535	-11.1853	65.0461	-179.794	-75.8714	93.7093	-186.751	-79.6676	123.658	-211.906	-62.3874	101.156	
4	0.0333333	-220.369	-23.9686	112.858	-214.318	-1.72823	89.4777	-209.717	11.6043	67.2483	-191.705	12.4394	46.2923	-201.1	-36.9892	40.8514	-182.515	-18.1335	24.5942	-173.795	6.01077	47.1966	-180.315	-42.4455	36.3907	-162.798	-15.3047	34.8596	-163.261	-2.4758	64.7194	-159.146	-52.5627	49.4671	-147.877	-21.9511	44.2897	-154.878	-9.84702	74.4992	-145.363	-58.2491	64.4222	-138.521	-32.902	54.4539	-145.34	-9.46271	77.2223	-182.093	-75.7066	93.9138	-194.008	-75.6152	120.887	-212.768	-59.6938	101.169	
5	0.0416667	-220.715	-24.2236	108.464	-215.658	-3.36566	90.2899	-208.16	8.29168	64.4608	-192.305	12.2842	45.5238	-200.322	-36.5685	41.776	-176.289	-17.3931	27.0301	-170.192	5.66781	45.3497	-174.847	-42.617	39.5354	-160.105	-15.9893	34.9792	-160.132	-3.43241	68.8475	-156.728	-50.8377	50.7533	-143.648	-20.6494	49.8938	-152.368	-9.97726	77.6816	-146.561	-56.1175	65.2284	-136.895	-30.8612	58.9604	-146.655	-12.2093	84.7841	-185.612	-74.1369	96.345	-192.792	-76.6122	123.073	-215.887	-58.01	101.162	
6	0.05	-224.061	-24.9853	108.166	-218.896	-3.42627	88.7658	-209.918	6.88894	69.229	-193.822	9.49782	48.523	-193.244	-39.275	39.452	-179.724	-21.2286	24.5854	-166.313	3.30866	42.9437	-171.904	-43.0069	40.3918	-159.143	-17.6836	34.9171	-160.923	-0.297709	70.339	-160.117	-49.4708	52.6693	-143.486	-22.0014	50.1241	-157.207	-7.77774	80.5437	-142.848	-55.4484	67.2139	-135.51	-25.0111	65.0882	-148.345	-10.9388	88.6866	-184.741	-72.6027	97.2785	-191.863	-78.5832	125.188	-213.917	-62.5491	102.527	
7	0.0583333	-225.806	-25.4872	112.914	-219.667	-3.05067	92.3157	-210.806	9.02465	64.7845	-192.859	11.6872	47.4942	-195.099	-39.8948	40.2893	-177.793	-18.0817	24.6709	-164.984	2.84025	41.935	-173.301	-41.6195	40.6522	-157.982	-17.0272	36.4822	-165.04	1.54031	71.0406	-159.812	-48.5322	51.7836	-141.426	-21.7735	51.5341	-152.492	-7.83164	78.9536	-142.673	-53.9583	65.2728	-135.241	-27.2944	63.4932	-150.259	-9.69692	89.8128	-180.449	-75.3577	98.5593	-191.56	-78.1429	123.462	-216.595	-61.4865	100.801	
8	0.0666667	-222.341	-22.1196	111.539	-213.442	0.043347	92.2917	-202.632	10.1686	70.8906	-180.358	9.48074	52.3919	-196.896	-37.8149	43.0404	-176.609	-16.1208	25.852	-170.299	9.03356	46.4962	-175.996	-41.4155	43.1296	-154.843	-14.063	39.5618	-161.422	0.670195	71.0039	-157.822	-47.9012	50.9312	-141.353	-21.4022	50.0655	-154.895	-5.63541	78.5317	-144.149	-55.8693	69.1758	-134.254	-28.2067	62.2692	-145.376	-7.29231	87.6021	-182.358	-71.9756	96.5191	-191.943	-77.1281	126.508	-214.265	-58.5861	103.088	
9	0.075	-219.643	-19.8479	114.426	-210.962	8.10359	94.2341	-199.052	19.0681	73.8291	-174.132	12.1769	61.3619	-197.297	-31.9834	42.3564	-177.315	-15.697	27.5286	-168.78	9.13162	50.9438	-176.576	-35.5919	41.2757	-158.739	-9.39292	37.7318	-161.531	3.24141	71.2646	-160.689	-42.9771	49.275	-140.202	-19.8009	49.0541	-151.679	-3.5546	78.3103	-148.97	-51.8811	69.4351	-133.321	-24.3979	62.6161	-143.694	-4.83417	83.9717	-180.989	-71.1196	97.2487	-191.882	-74.9825	121.907	-215.697	-55.3159	103.563	
10	0.0833333	-221.44	-13.9868	111.721	-209.092	11.3642	96.0721	-193.466	22.6618	74.8744	-168.386	15.8912	60.9196	-194.829	-25.0722	42.0639	-179.078	-4.22804	29.4495	-172.154	14.0872	59.3349	-175.258	-29.0653	40.1102	-159.039	-4.54163	38.8409	-159.947	5.30937	74.292	-156.626	-40.5277	52.2723	-141.397	-13.7873	49.6137	-153.323	2.06681	80.2808	-149.561	-46.8586	68.6284	-133.724	-20.3889	60.6894	-141.964	0.318204	82.212	-182.505	-66.4954	95.9974	-193.099	-69.7692	119.386	-215.272	-52.4411	101.098	
11	0.0916667	-220.703	-10.6774	113.852	-212.27	19.582	96.5672	-195.35	30.2905	75.6166	-170.158	20.1599	65.7388	-196.148	-15.4623	40.0295	-178.231	7.27004	31.6388	-172.873	20.4439	59.2027	-177.327	-23.0548	41.2225	-156.914	3.05911	39.7724	-164.028	11.9272	76.751	-159.361	-33.6545	52.316	-144.832	-6.47515	47.9582	-150.12	8.15993	78.5727	-149.67	-37.8945	62.8882	-135.555	-16.3744	58.7926	-140.031	8.52585	82.8785	-184.154	-61.3346	91.175	-194.231	-67.3376	118.506	-217.386	-42.9824	97.264	
